# xmcd
# 
# Track frame offsets:
#     150
#     18225
#     30212
#     45230
#     59225
#     70465
#     84190
#     98154
#     111360
#     128432
#     144447
#     157845
#     181600
# 
# Disc length: 2579
# 
# Revision: 5
# Processed by: cddbd v1.5.2PL0 Copyright (c) Steve Scherf et al.
# Submitted via: fre:ac v1.0.31
# 
DISCID=960a110d
DTITLE=Christmas - Asleep At The Wheel Merry Texas Christmas, Y'All
DYEAR=1997
DGENRE=Christmas
TTITLE0=Asleep at the Wheel featuring Tish Hinojosa and Ray Benson - Feliz Navidad
TTITLE1=Xmas in Jail
TTITLE2=Swingin' Drummer Boy
TTITLE3=Merry Texas Christmas Y'all
TTITLE4=Asleep at the Wheel featuring Willie Nelson - Pretty Paper
TTITLE5=T'was the Night Before
TTITLE6=Let It Snow, Let It Snow, Let It Snow
TTITLE7=Jingle Bell Boogie
TTITLE8=A Christmas Wish
TTITLE9=Silver Bells
TTITLE10=Here Comes Santa Claus
TTITLE11=Asleep at the Wheel featuring Don Walser and Willie Nelson - Silent Night
TTITLE12=Swingin' Silent Nite
EXTD=
EXTT0=
EXTT1=
EXTT2=
EXTT3=
EXTT4=
EXTT5=
EXTT6=
EXTT7=
EXTT8=
EXTT9=
EXTT10=
EXTT11=
EXTT12=
PLAYORDER=
